<?xml version="1.0" standalone="no"?><!DOCTYPE svg PUBLIC "-//W3C//DTD SVG 1.1//EN" "http://www.w3.org/Graphics/SVG/1.1/DTD/svg11.dtd"><svg t="1484278503764" class="icon" style="" viewBox="0 0 1024 1024" version="1.1" xmlns="http://www.w3.org/2000/svg" p-id="2627" xmlns:xlink="http://www.w3.org/1999/xlink" width="200" height="200"><defs><style type="text/css"></style></defs><path d="M511.99079 7.410783c-278.661627 0-504.578983 225.91224-504.578983 504.589217 0 278.682094 225.917356 504.589217 504.578983 504.589217 278.680047 0 504.597403-225.907123 504.597403-504.589217 0-278.676977-225.917356-504.589217-504.597403-504.589217z m-0.002046 958.712042c-250.811326 0-454.129988-203.321732-454.129988-454.129988S261.177418 57.861826 511.988744 57.861826c250.808256 0 454.129988 203.321732 454.129988 454.129988S762.797 966.122825 511.988744 966.122825z m34.195823-671.981645H479.218386v192.031595H287.188838v67.852364H479.218386V746.054687h66.966181V554.024116h192.916754v-67.852364H546.184567V294.14118z" fill="#bfbfbf" p-id="2628"></path></svg>