<?xml version="1.0" standalone="no"?><!DOCTYPE svg PUBLIC "-//W3C//DTD SVG 1.1//EN" "http://www.w3.org/Graphics/SVG/1.1/DTD/svg11.dtd"><svg t="1484209423452" class="icon" style="" viewBox="0 0 1024 1024" version="1.1" xmlns="http://www.w3.org/2000/svg" p-id="2341" xmlns:xlink="http://www.w3.org/1999/xlink" width="200" height="200"><defs><style type="text/css"></style></defs><path d="M510.296195 883.286188c-3.493567 0-8.734942-1.746784-12.228509-3.493567-15.71696-6.983041-406.919756-206.080565-406.919756-504.721223 0-132.729977 108.278075-241.009076 241.009076-241.009076 68.109214 0 132.729977 29.688159 178.13919 78.590939 45.405119-50.649564 110.024859-78.590939 178.135096-78.590939 132.729977 0 241.008053 108.279099 241.008053 241.009076 0 298.640658-391.202797 497.738182-406.919756 504.721223C519.02602 881.539404 513.785669 883.286188 510.296195 883.286188L510.296195 883.286188zM332.157006 188.201359c-103.038748 0-186.870038 83.83129-186.870038 186.870038 0 237.514485 300.388465 415.653675 365.009228 450.582185 64.615647-34.92851 365.004111-213.0677 365.004111-450.582185 0-103.038748-83.827197-186.870038-186.869015-186.870038-62.873979 0-120.502491 31.434943-155.435095 83.83129-10.476609 15.717983-34.92851 15.717983-45.405119 0C452.658474 219.636303 395.029962 188.201359 332.157006 188.201359L332.157006 188.201359zM332.157006 188.201359" p-id="2342" fill="#8a8a8a"></path><path d="M508.761236 829.119521c-3.102664 0-7.758708-1.551332-10.861372-3.102664-13.959943-6.202259-361.41947-183.037756-361.41947-448.284863 0-117.888967 96.170317-214.060307 214.060307-214.060307 60.493769 0 117.888967 26.368554 158.220534 69.802786 40.328497-44.986587 97.722672-69.802786 158.216441-69.802786 117.888967 0 214.059284 96.17134 214.059284 214.060307 0 265.24813-347.459526 442.082604-361.41947 448.284863C516.514827 827.568189 511.859807 829.119521 508.761236 829.119521L508.761236 829.119521zM350.540701 211.756845c88.083128 70.38914 241.993496 123.098619 240.015446 214.594473-12.278651 567.906288-139.190109 320.556806-81.794911 351.579357 57.390082-31.022551-137.693012-231.181243-137.693012-442.137863 0-91.517343 302.694997-169.125909 296.232818-139.674133-11.968589 54.546314-107.35096 43.558052-138.377604 90.094948-9.304923 13.959943-31.022551 13.959943-40.328497 0C457.568297 239.676731 271.300986 397.189138 350.540701 211.756845L350.540701 211.756845zM303.533085 225.281883" p-id="2343" fill="#8a8a8a"></path></svg>