<?xml version="1.0" standalone="no"?><!DOCTYPE svg PUBLIC "-//W3C//DTD SVG 1.1//EN" "http://www.w3.org/Graphics/SVG/1.1/DTD/svg11.dtd"><svg t="1487641118344" class="icon" style="" viewBox="0 0 1024 1024" version="1.1" xmlns="http://www.w3.org/2000/svg" p-id="3381" xmlns:xlink="http://www.w3.org/1999/xlink" width="200" height="200"><defs><style type="text/css"></style></defs><path d="M498.944 928c-246.08 0-446.336-200.256-446.336-446.336s200.256-446.336 446.336-446.336 446.336 200.256 446.336 446.336C945.344 727.744 745.088 928 498.944 928M498.944 69.632c-227.2 0-412.032 184.832-412.032 412.032 0 227.136 184.832 412.032 412.032 412.032s412.032-184.832 412.032-412.032S726.144 69.632 498.944 69.632" p-id="3382" fill="#d81e06"></path><path d="M355.175174 654.22631l-28.736544-28.736544 316.37351-316.37351 28.736544 28.736544-316.37351 316.37351Z" p-id="3383" fill="#d81e06"></path><path d="M671.49351 625.464826l-28.736544 28.736544-316.37351-316.37351 28.736544-28.736544 316.37351 316.37351Z" p-id="3384" fill="#d81e06"></path></svg>